<?xml version="1.0" encoding="utf-8"?>
<!-- Generator: Adobe Illustrator 25.2.1, SVG Export Plug-In . SVG Version: 6.00 Build 0)  -->
<svg version="1.1" id="Layer_1" xmlns="http://www.w3.org/2000/svg" xmlns:xlink="http://www.w3.org/1999/xlink" x="0px" y="0px"
	 viewBox="0 0 36 36" style="enable-background:new 0 0 36 36;" xml:space="preserve">
<style type="text/css">
	.st0{fill:#2775CA;}
	.st1{fill:#FFFFFF;}
</style>
<g id="g941" transform="matrix(0.10483594,0,0,0.10483594,265.97266,217.4375)">
	<path id="path924" class="st0" d="M-2365.339-1730.679c95.149,0,171.697-76.548,171.697-171.697s-76.548-171.697-171.697-171.697
		s-171.697,76.547-171.697,171.697S-2460.488-1730.679-2365.339-1730.679z"/>
	<path id="path926" class="st1" d="M-2318.122-1875.191c0-25.038-15.024-33.623-45.071-37.2
		c-21.462-2.862-25.754-8.585-25.754-18.602c0-10.017,7.155-16.454,21.462-16.454c12.877,0,20.032,4.292,23.608,15.024
		c0.716,2.146,2.862,3.576,5.009,3.576h11.445c2.862,0,5.008-2.146,5.008-5.007v-0.716c-2.862-15.74-15.74-27.901-32.193-29.331
		v-17.17c0-2.862-2.146-5.008-5.723-5.724h-10.731c-2.862,0-5.008,2.146-5.724,5.724v16.454
		c-21.462,2.862-35.053,17.17-35.053,35.055c0,23.608,14.307,32.907,44.354,36.485c20.032,3.576,26.471,7.869,26.471,19.316
		s-10.017,19.316-23.608,19.316c-18.602,0-25.04-7.871-27.187-18.602c-0.714-2.86-2.86-4.292-5.007-4.292h-12.163
		c-2.86,0-5.007,2.146-5.007,5.008v0.716c2.86,17.884,14.307,30.761,37.916,34.339v17.17c0,2.86,2.146,5.007,5.723,5.723h10.731
		c2.862,0,5.009-2.146,5.724-5.723v-17.17C-2332.43-1840.852-2318.122-1855.875-2318.122-1875.191L-2318.122-1875.191z"/>
	<path id="path928" class="st1" d="M-2401.824-1800.074c-55.802-20.03-84.418-82.27-63.67-137.357
		c10.731-30.047,34.339-52.939,63.67-63.67c2.862-1.43,4.292-3.577,4.292-7.155v-10.015c0-2.862-1.43-5.008-4.292-5.723
		c-0.716,0-2.146,0-2.862,0.714c-67.963,21.462-105.164,93.719-83.702,161.682c12.877,40.062,43.64,70.825,83.702,83.702
		c2.862,1.43,5.724,0,6.439-2.862c0.716-0.714,0.716-1.43,0.716-2.86v-10.017
		C-2397.532-1795.782-2399.678-1798.642-2401.824-1800.074z M-2325.991-2023.28c-2.862-1.43-5.724,0-6.439,2.862
		c-0.716,0.716-0.716,1.43-0.716,2.862v10.015c0,2.862,2.146,5.723,4.292,7.155c55.802,20.03,84.418,82.27,63.67,137.357
		c-10.731,30.047-34.339,52.939-63.67,63.67c-2.862,1.43-4.292,3.576-4.292,7.155v10.015c0,2.862,1.43,5.008,4.292,5.723
		c0.716,0,2.146,0,2.862-0.714c67.963-21.462,105.164-93.719,83.702-161.682C-2255.166-1979.64-2286.645-2010.403-2325.991-2023.28z
		"/>
</g>
</svg>
