<?xml version="1.0" encoding="utf-8"?>
<!-- Generator: Adobe Illustrator 25.3.1, SVG Export Plug-In . SVG Version: 6.00 Build 0)  -->
<svg version="1.1" id="Layer_1" xmlns="http://www.w3.org/2000/svg" xmlns:xlink="http://www.w3.org/1999/xlink" x="0px" y="0px"
	 viewBox="0 0 36 36" style="enable-background:new 0 0 36 36;" xml:space="preserve">
<style type="text/css">
	.st0{fill:#8247E5;}
	.st1{fill:#FFFFFF;}
</style>
<g>
	<path class="st0" d="M18,0c9.941,0,18,8.059,18,18s-8.06,18-18,18S0,27.943,0,18S8.058,0,18,0"/>
</g>
<g>
	<path class="st1" d="M24.43,13.724c-0.457-0.261-1.045-0.261-1.567,0l-3.656,2.154l-2.481,1.371l-3.591,2.154
		c-0.457,0.261-1.045,0.261-1.567,0l-2.807-1.697c-0.457-0.261-0.783-0.783-0.783-1.371v-3.264c0-0.522,0.261-1.045,0.783-1.371
		l2.807-1.632c0.457-0.261,1.045-0.261,1.567,0l2.807,1.697c0.457,0.261,0.783,0.783,0.783,1.371v2.154l2.481-1.436v-2.22
		c0-0.522-0.261-1.045-0.783-1.371l-5.223-3.068c-0.457-0.261-1.045-0.261-1.567,0l-5.353,3.134
		c-0.522,0.261-0.783,0.783-0.783,1.306v6.136c0,0.522,0.261,1.045,0.783,1.371l5.288,3.068c0.457,0.261,1.045,0.261,1.567,0
		l3.591-2.089l2.481-1.436l3.591-2.089c0.457-0.261,1.045-0.261,1.567,0l2.807,1.632c0.457,0.261,0.783,0.783,0.783,1.371v3.264
		c0,0.522-0.261,1.045-0.783,1.371l-2.742,1.632c-0.457,0.261-1.045,0.261-1.567,0l-2.807-1.632
		c-0.457-0.261-0.783-0.783-0.783-1.371v-2.089l-2.481,1.436v2.154c0,0.522,0.261,1.045,0.783,1.371l5.288,3.068
		c0.457,0.261,1.045,0.261,1.567,0l5.288-3.068c0.457-0.261,0.783-0.783,0.783-1.371v-6.202c0-0.522-0.261-1.045-0.783-1.371
		L24.43,13.724z"/>
</g>
</svg>
